<?xml version="1.0" encoding="UTF-8"?>
<!DOCTYPE svg PUBLIC "-//W3C//DTD SVG 1.1//EN" "http://www.w3.org/Graphics/SVG/1.1/DTD/svg11.dtd">
<!-- Creator: CorelDRAW -->
<svg xmlns="http://www.w3.org/2000/svg" xml:space="preserve" width="192px" height="1884px" version="1.1" style="shape-rendering:geometricPrecision; text-rendering:geometricPrecision; image-rendering:optimizeQuality; fill-rule:evenodd; clip-rule:evenodd"
viewBox="0 0 190.33 1870.07"
 xmlns:xlink="http://www.w3.org/1999/xlink"
 xmlns:xodm="http://www.corel.com/coreldraw/odm/2003">
 <defs>
  <style type="text/css">
   <![CDATA[
    .fil0 {fill:#FEFEFE}
   ]]>
  </style>
 </defs>
 <g id="Слой_x0020_1">
  <metadata id="CorelCorpID_0Corel-Layer"/>
  <path class="fil0" d="M190.29 0c0.01,0.02 0.03,0.04 0.04,0.06 -4.96,7.43 -11.48,12.33 -20.79,9.69 27.56,45.74 -6.77,52.21 16.17,119.19 -32.65,-24.45 -41.89,-43.77 -35.11,-59.59 -25.87,1.69 -28.9,-28.07 -16.64,-35.11 12.27,-7.04 29.88,5.23 15.71,20.33 27.11,6.61 23.87,-31.14 0.47,-40.66 -23.41,-9.52 -51.5,17.24 -36.96,48.05 14.54,30.8 33.27,64.27 51.74,95.62 18.47,31.35 10.16,69.14 -8.78,76.22 18.94,7.09 27.25,44.88 8.78,76.23 -18.47,31.34 -37.2,64.82 -51.74,95.62 -14.54,30.8 13.55,57.56 36.96,48.05 23.4,-9.52 26.64,-47.27 -0.47,-40.65 14.17,15.08 -3.44,27.36 -15.71,20.32 -12.26,-7.03 -9.23,-36.8 16.64,-35.11 -6.78,-15.82 2.46,-35.14 35.11,-59.59 -22.94,66.98 11.39,73.45 -16.17,119.19 8.16,-2.31 15.09,0.92 20.79,9.7 -5.7,8.77 -12.63,12 -20.79,9.7 27.56,45.73 -6.77,52.2 16.17,119.18 -32.65,-24.45 -41.89,-43.77 -35.11,-59.59 -25.87,1.69 -28.9,-28.07 -16.64,-35.11 12.27,-7.04 29.88,5.24 15.71,20.33 27.11,6.62 23.87,-31.14 0.47,-40.65 -23.41,-9.52 -51.5,17.24 -36.96,48.04 14.54,30.8 33.27,64.27 51.74,95.62 18.47,31.35 10.16,69.14 -8.78,76.23 18.94,7.08 27.25,44.87 8.78,76.22 -18.47,31.35 -37.2,64.82 -51.74,95.63 0,0 0,0 0,0.01l0 -0.01c-2.72,5.78 -3.95,11.41 -3.99,16.69 0,0 0,0 0,0 -0.01,0.44 0,0.87 0.01,1.31 0.66,22.17 22.29,37.62 40.94,30.04 11.7,-4.76 18.36,-16.58 18.7,-26.38 0.02,-0.3 0.02,-0.61 0.02,-0.91 0,0 0,0 0,0 0,-0.3 -0.01,-0.6 -0.02,-0.9 -0.42,-8.91 -6.46,-15.56 -19.16,-12.46 3.76,4.01 5.28,7.82 5.25,11.12 -0.06,9.13 -11.96,14.38 -20.97,9.21 -4.4,-2.53 -6.84,-8 -6.94,-13.89 -0.01,-0.25 -0.01,-0.51 0,-0.76 0,0 0,0 0,0 0.16,-10.29 7.41,-21.52 23.58,-20.47 -1.38,-3.21 -2.09,-6.57 -2.09,-10.08 0.03,-13.8 11.18,-30.03 37.2,-49.51 0,0 0,0 0,0 0,0 0,0 0,0 -6.1,17.8 -8.15,31.32 -8.39,42.44 -0.02,0.66 -0.03,1.3 -0.03,1.94 0,0 0,0 0,0 0,0.64 0,1.27 0.01,1.89 0.21,14.94 3.51,25.54 3.59,37.06 0,0 0,0 0,0 0,0.48 0,0.96 -0.01,1.44 -0.16,9.67 -2.73,20.13 -11.34,34.42 8.16,-2.31 15.09,0.92 20.79,9.7l-0.01 0c0,0 0.01,0 0.01,0 -5.7,8.78 -12.63,12.01 -20.79,9.7 27.56,45.74 -6.77,52.2 16.17,119.19 -32.65,-24.45 -41.89,-43.77 -35.11,-59.59 -25.87,1.69 -28.9,-28.07 -16.64,-35.11 12.27,-7.04 29.88,5.24 15.71,20.32 27.11,6.63 23.87,-31.13 0.47,-40.65 -23.41,-9.51 -51.5,17.24 -36.96,48.04 14.54,30.81 33.27,64.28 51.74,95.63 18.47,31.35 10.16,69.15 -8.78,76.22 18.94,7.09 27.25,44.88 8.78,76.23 -18.47,31.35 -37.2,64.82 -51.74,95.62 -14.54,30.81 13.55,57.56 36.96,48.05 23.4,-9.52 26.64,-47.28 -0.47,-40.65 14.17,15.09 -3.44,27.36 -15.71,20.32 -12.26,-7.04 -9.23,-36.8 16.64,-35.1 -6.78,-15.83 2.46,-35.15 35.11,-59.6 -22.94,66.98 11.39,73.45 -16.17,119.18 8.16,-2.3 15.09,0.93 20.79,9.7 -5.7,8.78 -12.63,12.02 -20.79,9.7 27.56,45.74 -6.77,52.21 16.17,119.19 -32.65,-24.45 -41.89,-43.77 -35.11,-59.59 -25.87,1.69 -28.9,-28.07 -16.64,-35.11 12.27,-7.04 29.88,5.24 15.71,20.33 27.11,6.62 23.87,-31.14 0.47,-40.66 -23.41,-9.51 -51.5,17.25 -36.96,48.05 14.54,30.8 33.27,64.28 51.74,95.62 18.47,31.36 10.16,69.14 -8.78,76.23 18.94,7.08 27.25,44.87 8.78,76.22 -18.47,31.35 -37.2,64.82 -51.74,95.63 -14.54,30.8 13.55,57.56 36.96,48.04 23.4,-9.52 26.64,-47.27 -0.47,-40.66 14.17,15.1 -3.44,27.37 -15.71,20.34 -12.26,-7.05 -9.23,-36.8 16.64,-35.12 -6.78,-15.81 2.46,-35.14 35.11,-59.59 -22.94,66.99 11.39,73.45 -16.17,119.19 8.16,-2.31 15.09,0.92 20.79,9.7 0,0 -0.01,0 -0.01,0l-68.84 0c0.01,0 0.01,0 0.01,0 -16.44,-10.43 -24.67,-24.67 -26.32,-37.88 -1.67,13.21 -9.9,27.45 -26.34,37.88 0.01,0 0.01,0 0.01,0l-68.84 0c0,0 0,0 0,0 5.7,-8.78 12.63,-12.01 20.79,-9.7 -27.56,-45.74 6.77,-52.2 -16.17,-119.19 32.64,24.45 41.88,43.78 35.11,59.59 25.87,-1.68 28.89,28.07 16.63,35.12 -12.27,7.03 -29.87,-5.24 -15.71,-20.34 -27.1,-6.61 -23.87,31.14 -0.46,40.66 23.4,9.52 51.5,-17.24 36.96,-48.04 -14.55,-30.81 -33.27,-64.28 -51.74,-95.63 -18.47,-31.35 -10.16,-69.14 8.78,-76.22 -18.94,-7.09 -27.25,-44.87 -8.78,-76.23 18.47,-31.34 37.19,-64.82 51.74,-95.62 14.54,-30.8 -13.56,-57.56 -36.96,-48.05 -23.41,9.52 -26.64,47.28 0.46,40.66 -14.16,-15.09 3.44,-27.37 15.71,-20.33 12.26,7.04 9.24,36.8 -16.63,35.11 6.77,15.82 -2.47,35.14 -35.11,59.59 22.94,-66.98 -11.39,-73.45 16.17,-119.19 -8.16,2.32 -15.09,-0.92 -20.79,-9.7 5.7,-8.77 12.63,-12 20.79,-9.7 -27.56,-45.73 6.77,-52.2 -16.17,-119.18 32.64,24.45 41.88,43.77 35.11,59.6 25.87,-1.7 28.89,28.06 16.63,35.1 -12.27,7.04 -29.87,-5.23 -15.71,-20.32 -27.1,-6.63 -23.87,31.13 -0.46,40.65 23.4,9.51 51.5,-17.24 36.96,-48.05 -14.55,-30.8 -33.27,-64.27 -51.74,-95.62 -18.47,-31.35 -10.16,-69.14 8.78,-76.23 -18.94,-7.07 -27.25,-44.87 -8.78,-76.22 18.47,-31.35 37.19,-64.82 51.74,-95.63 14.54,-30.8 -13.56,-57.55 -36.96,-48.04 -23.41,9.52 -26.64,47.28 0.46,40.65 -14.16,-15.08 3.44,-27.36 15.71,-20.32 12.26,7.04 9.24,36.8 -16.63,35.11 6.77,15.82 -2.47,35.14 -35.11,59.59 22.94,-66.99 -11.39,-73.45 16.17,-119.19 -8.16,2.31 -15.09,-0.92 -20.79,-9.7 0,0 0,0 0.01,0l-0.01 0c5.7,-8.78 12.63,-12.01 20.78,-9.7 -8.61,-14.29 -11.17,-24.75 -11.33,-34.42 -0.01,-0.48 -0.02,-0.96 -0.01,-1.44 0,0 0,0 0,0 0.08,-11.52 3.37,-22.12 3.59,-37.06 0,-0.62 0.01,-1.25 0,-1.89 0,0 0,0 0,0 0,-0.64 -0.01,-1.28 -0.02,-1.94 -0.24,-11.12 -2.3,-24.64 -8.39,-42.44 0,0 0,0 0,0 0,0 0,0 0,0 26.02,19.48 37.17,35.71 37.2,49.51 0,3.51 -0.71,6.87 -2.08,10.08 16.16,-1.05 23.4,10.18 23.57,20.47 0,0 0,0 0,0 0,0.25 0,0.51 0,0.76 -0.11,5.89 -2.54,11.36 -6.95,13.89 -9.01,5.17 -20.9,-0.08 -20.97,-9.21 -0.02,-3.3 1.5,-7.11 5.26,-11.12 -12.7,-3.1 -18.74,3.55 -19.16,12.46 -0.01,0.3 -0.02,0.6 -0.02,0.9 0,0 0,0 0,0 0,0.3 0,0.61 0.01,0.91 0.35,9.8 7.01,21.62 18.71,26.38 18.65,7.58 40.28,-7.87 40.94,-30.04 0.01,-0.44 0.02,-0.87 0.01,-1.31 0,0 0,0 0,0 -0.04,-5.28 -1.27,-10.91 -3.99,-16.69l0 0.01c0,-0.01 0,-0.01 0,-0.01 -14.55,-30.81 -33.27,-64.28 -51.74,-95.63 -18.47,-31.35 -10.16,-69.14 8.78,-76.22 -18.94,-7.09 -27.25,-44.88 -8.78,-76.23 18.47,-31.35 37.19,-64.82 51.74,-95.62 14.54,-30.8 -13.56,-57.56 -36.96,-48.04 -23.41,9.51 -26.64,47.27 0.46,40.65 -14.16,-15.09 3.44,-27.37 15.71,-20.33 12.26,7.04 9.24,36.8 -16.63,35.11 6.77,15.82 -2.47,35.14 -35.11,59.59 22.94,-66.98 -11.39,-73.45 16.17,-119.18 -8.16,2.3 -15.09,-0.93 -20.79,-9.7 5.7,-8.78 12.63,-12.01 20.79,-9.7 -27.56,-45.74 6.77,-52.21 -16.17,-119.19 32.64,24.45 41.88,43.77 35.11,59.59 25.87,-1.69 28.89,28.08 16.63,35.11 -12.27,7.04 -29.87,-5.24 -15.71,-20.32 -27.1,-6.62 -23.87,31.13 -0.46,40.65 23.4,9.51 51.5,-17.25 36.96,-48.05 -14.55,-30.8 -33.27,-64.28 -51.74,-95.62 -18.47,-31.35 -10.16,-69.14 8.78,-76.23 -18.94,-7.08 -27.25,-44.87 -8.78,-76.22 18.47,-31.35 37.19,-64.82 51.74,-95.62 14.54,-30.81 -13.56,-57.57 -36.96,-48.05 -23.41,9.52 -26.64,47.27 0.46,40.66 -14.16,-15.1 3.44,-27.37 15.71,-20.33 12.26,7.04 9.24,36.8 -16.63,35.11 6.77,15.82 -2.47,35.14 -35.11,59.59 22.94,-66.98 -11.39,-73.45 16.17,-119.19 -9.31,2.64 -15.84,-2.27 -20.79,-9.69 0.01,-0.02 0.02,-0.04 0.04,-0.06l68.88 0c-0.03,0.02 -0.06,0.04 -0.09,0.06 0,0 0,0 0,0l0.01 0c16.43,10.43 24.66,24.66 26.33,37.87 1.65,-13.21 9.88,-27.44 26.32,-37.87l0 0c0,0 0,0 0,0 -0.03,-0.02 -0.05,-0.04 -0.08,-0.06l68.88 0zm-95.12 130.32c-7.24,2.01 -10.17,10.94 -8.78,24.03 -20.37,-7.14 -27.74,3.81 -33.26,18.94 26.87,-13.26 43.62,14.6 26.79,37.88 -16.84,23.27 -40.7,14.69 -48.51,-4.62 -7.8,-19.31 4.18,-37.52 17.1,-59.13 12.92,-21.62 31.26,-58.36 46.66,-89.16 15.4,30.8 33.73,67.54 46.65,89.16 12.92,21.61 24.89,39.82 17.09,59.13 -7.8,19.31 -31.67,27.89 -48.5,4.62 -16.84,-23.28 -0.08,-51.14 26.79,-37.88 -5.52,-15.13 -12.9,-26.08 -33.26,-18.94 1.39,-13.09 -1.54,-22.02 -8.77,-24.03zm0 1609.48c-7.24,-2.01 -10.17,-10.94 -8.78,-24.03 -20.37,7.14 -27.74,-3.81 -33.26,-18.94 26.87,13.26 43.62,-14.6 26.79,-37.88 -16.84,-23.27 -40.7,-14.69 -48.51,4.63 -7.8,19.31 4.18,37.51 17.1,59.13 12.92,21.61 31.26,58.35 46.66,89.16 15.4,-30.81 33.73,-67.55 46.65,-89.16 12.92,-21.62 24.89,-39.82 17.09,-59.13 -7.8,-19.32 -31.67,-27.9 -48.5,-4.63 -16.84,23.28 -0.08,51.14 26.79,37.88 -5.52,15.13 -12.9,26.08 -33.26,18.94 1.39,13.09 -1.54,22.02 -8.77,24.03zm0 -279.03c-15.4,30.8 -33.74,67.54 -46.66,89.16 -12.92,21.62 -24.9,39.82 -17.1,59.13 7.81,19.31 31.67,27.9 48.51,4.62 16.83,-23.28 0.08,-51.13 -26.79,-37.88 5.52,-15.12 12.89,-26.08 33.26,-18.93 -1.39,-13.1 1.54,-22.03 8.78,-24.03 7.23,2 10.16,10.93 8.77,24.03 20.36,-7.15 27.74,3.81 33.26,18.93 -26.87,-13.25 -43.63,14.6 -26.79,37.88 16.83,23.28 40.7,14.69 48.5,-4.62 7.8,-19.31 -4.17,-37.51 -17.09,-59.13 -12.92,-21.62 -31.25,-58.36 -46.65,-89.16zm0 147.82c-3.08,13.56 -9.86,20.34 -20.34,27.73 10.48,7.39 17.26,14.16 20.34,27.71 3.07,-13.55 9.84,-20.32 20.32,-27.71 -10.48,-7.39 -17.25,-14.17 -20.32,-27.73zm-26.34 -206.03c16.44,10.44 24.67,24.68 26.34,37.88 1.65,-13.2 9.88,-27.44 26.32,-37.88 -16.44,-10.43 -24.67,-24.66 -26.32,-37.88 -1.67,13.22 -9.9,27.45 -26.34,37.88zm26.34 -337.22c-7.24,2 -10.17,10.93 -8.78,24.02 -20.37,-7.14 -27.74,3.82 -33.26,18.94 26.87,-13.26 43.62,14.6 26.79,37.88 -16.84,23.27 -40.7,14.69 -48.51,-4.62 -7.8,-19.31 4.18,-37.51 17.1,-59.13 12.92,-21.62 31.26,-58.36 46.66,-89.16 15.4,30.8 33.73,67.54 46.65,89.16 12.92,21.62 24.89,39.82 17.09,59.13 -7.8,19.31 -31.67,27.89 -48.5,4.62 -16.84,-23.28 -0.08,-51.14 26.79,-37.88 -5.52,-15.12 -12.9,-26.08 -33.26,-18.94 1.39,-13.09 -1.54,-22.02 -8.77,-24.02zm0 -92.4c-1.67,-13.21 -9.9,-27.44 -26.34,-37.88 16.44,-10.43 24.67,-24.67 26.34,-37.88 1.65,13.21 9.88,27.45 26.32,37.88 -16.44,10.44 -24.67,24.67 -26.32,37.88zm0 371.42c-15.4,-30.8 -33.74,-67.54 -46.66,-89.16 -12.92,-21.62 -24.9,-39.82 -17.1,-59.13 7.81,-19.31 31.67,-27.89 48.51,-4.62 16.83,23.28 0.08,51.13 -26.79,37.88 5.52,15.12 12.89,26.08 33.26,18.94 -1.39,13.09 1.54,22.02 8.78,24.02 7.23,-2 10.16,-10.93 8.77,-24.02 20.36,7.14 27.74,-3.82 33.26,-18.94 -26.87,13.25 -43.63,-14.6 -26.79,-37.88 16.83,-23.27 40.7,-14.69 48.5,4.62 7.8,19.31 -4.17,37.51 -17.09,59.13 -12.92,21.62 -31.25,58.36 -46.65,89.16zm0 -147.83c-3.08,-13.55 -9.86,-20.33 -20.34,-27.72 10.48,-7.38 17.26,-14.16 20.34,-27.71 3.07,13.55 9.84,20.33 20.32,27.71 -10.48,7.39 -17.25,14.17 -20.32,27.72zm0 -787.18c-15.4,-30.8 -33.74,-67.54 -46.66,-89.16 -12.92,-21.62 -24.9,-39.82 -17.1,-59.13 7.81,-19.31 31.67,-27.9 48.51,-4.62 16.83,23.28 0.08,51.13 -26.79,37.88 5.52,15.12 12.89,26.08 33.26,18.93 -1.39,13.1 1.54,22.03 8.78,24.03 7.23,-2 10.16,-10.93 8.77,-24.03 20.36,7.15 27.74,-3.81 33.26,-18.93 -26.87,13.25 -43.63,-14.6 -26.79,-37.88 16.83,-23.28 40.7,-14.69 48.5,4.62 7.8,19.31 -4.17,37.51 -17.09,59.13 -12.92,21.62 -31.25,58.36 -46.65,89.16zm0 -147.82c-3.08,-13.56 -9.86,-20.33 -20.34,-27.73 10.48,-7.39 17.26,-14.16 20.34,-27.71 3.07,13.55 9.84,20.32 20.32,27.71 -10.48,7.4 -17.25,14.17 -20.32,27.73zm-26.34 206.03c16.44,-10.44 24.67,-24.68 26.34,-37.88 1.65,13.2 9.88,27.44 26.32,37.88 -16.44,10.43 -24.67,24.66 -26.32,37.88 -1.67,-13.22 -9.9,-27.45 -26.34,-37.88zm26.34 337.23c-7.24,-2.01 -10.17,-10.94 -8.78,-24.02 -20.37,7.13 -27.74,-3.83 -33.26,-18.94 26.87,13.25 43.62,-14.61 26.79,-37.89 -16.84,-23.27 -40.7,-14.69 -48.51,4.62 -7.8,19.32 4.18,37.51 17.1,59.13 12.92,21.62 31.26,58.36 46.66,89.16 15.4,-30.8 33.73,-67.54 46.65,-89.16 12.92,-21.62 24.89,-39.81 17.09,-59.13 -7.8,-19.31 -31.67,-27.89 -48.5,-4.62 -16.84,23.28 -0.08,51.14 26.79,37.89 -5.52,15.11 -12.9,26.07 -33.26,18.94 1.39,13.08 -1.54,22.01 -8.77,24.02zm0 -279.03c-15.4,30.8 -33.74,67.54 -46.66,89.16 -12.92,21.62 -24.9,39.82 -17.1,59.13 7.81,19.32 31.67,27.9 48.51,4.62 16.83,-23.28 0.08,-51.13 -26.79,-37.88 5.52,-15.12 12.89,-26.08 33.26,-18.94 -1.39,-13.09 1.54,-22.02 8.78,-24.02 7.23,2 10.16,10.93 8.77,24.02 20.36,-7.14 27.74,3.82 33.26,18.94 -26.87,-13.25 -43.63,14.6 -26.79,37.88 16.83,23.28 40.7,14.7 48.5,-4.62 7.8,-19.31 -4.17,-37.51 -17.09,-59.13 -12.92,-21.62 -31.25,-58.36 -46.65,-89.16zm0 147.83c-3.08,13.55 -9.86,20.33 -20.34,27.72 10.48,7.38 17.26,14.17 20.34,27.71 3.07,-13.54 9.84,-20.33 20.32,-27.71 -10.48,-7.39 -17.25,-14.17 -20.32,-27.72z"/>
 </g>
</svg>
